# xmcd
#
# Track frame offsets:
#	150
#	14500
#	32946
#	51268
#	67345
#	83980
#	100962
#	118360
#	137754
#	155065
#
# Disc length: 2294 seconds
#
# Revision: 1
# Processed by: cddbd v1.5.2PL0 Copyright (c) Steve Scherf et al.
# Submitted via: audiograbber 1.83.01
#
DISCID=9808f40a
DTITLE=Julian Austin - The Red and White
DYEAR=2006
DGENRE=
TTITLE0=He's Got What It Takes
TTITLE1=Good Life
TTITLE2=I Just Can't Do
TTITLE3=Marie
TTITLE4=Harbour Town
TTITLE5=Back To Me
TTITLE6=Pretty As A Rose
TTITLE7=Crickle Creek River
TTITLE8=Class of '89
TTITLE9=The Red and White
EXTD=
EXTT0=
EXTT1=
EXTT2=
EXTT3=
EXTT4=
EXTT5=
EXTT6=
EXTT7=
EXTT8=
EXTT9=
PLAYORDER=
